<?xml version="1.0" encoding="utf-8"?>
<!-- Generator: Adobe Illustrator 23.0.6, SVG Export Plug-In . SVG Version: 6.00 Build 0)  -->
<svg version="1.1" id="Layer_1" xmlns="http://www.w3.org/2000/svg" xmlns:xlink="http://www.w3.org/1999/xlink" x="0px" y="0px"
	 viewBox="0 0 1200 600" style="enable-background:new 0 0 1200 600;" xml:space="preserve">
<style type="text/css">
	.st0{fill:#FFFFFF;}
	.st1{fill:#111000;}
	.st2{fill:url(#SVGID_1_);}
	.st3{fill:#332211;}
	.st4{fill:url(#SVGID_2_);}
	.st5{fill:#EEEDDD;}
	.st6{fill:#EE0033;}
	.st7{fill:#00CC77;}
	.st8{fill:#4488FF;}
	.st9{fill:#00ADEE;}
	.st10{fill:#0067A0;}
	.st11{opacity:0.8;}
	.st12{fill:#231F20;}
	.st13{opacity:0.6;}
	.st14{fill:#40B8E9;}
	.st15{fill:#002834;}
	.st16{fill:none;stroke:#231F20;stroke-width:6;stroke-miterlimit:10;}
	.st17{fill:#FFCC66;}
	.st18{fill:url(#SVGID_3_);}
	.st19{fill:url(#SVGID_4_);}
	.st20{fill:#03233F;}
	.st21{fill:url(#SVGID_5_);}
	.st22{fill:url(#SVGID_6_);}
	.st23{fill:url(#SVGID_7_);}
	.st24{fill:url(#SVGID_8_);}
	.st25{fill:url(#SVGID_9_);}
	.st26{fill:#EFEBE1;}
	.st27{fill:url(#SVGID_10_);}
	.st28{fill:#062332;}
	.st29{fill:url(#SVGID_11_);}
	.st30{fill:url(#SVGID_12_);}
	.st31{fill:url(#SVGID_13_);}
	.st32{fill:#EFB3E1;}
	.st33{fill:#1C3664;}
	.st34{fill:#F37B4F;}
	.st35{fill:url(#SVGID_14_);}
	.st36{fill:url(#SVGID_15_);}
	.st37{fill:url(#SVGID_16_);}
	.st38{fill:#FFEEDD;}
	.st39{fill:#FF9900;}
	.st40{fill:#FFEECC;}
	.st41{fill:#EEDDCC;}
	.st42{fill:#BBAA99;}
	.st43{fill:#221100;}
	.st44{fill:#DDDCCC;}
	.st45{fill:#AAA999;}
	.st46{fill:#333222;}
	.st47{fill:#DDDD88;}
	.st48{fill:#EEEECC;}
	.st49{fill:#00DD88;}
	.st50{fill:#CCEECC;}
	.st51{fill:#00BBAA;}
	.st52{fill:#00AADD;}
	.st53{fill:#66AAFF;}
	.st54{fill:#CCEEEE;}
	.st55{fill:#CCEEFF;}
	.st56{fill:#BEDDFF;}
	.st57{fill:none;stroke:#BBAA99;stroke-linecap:round;stroke-linejoin:round;stroke-dasharray:2,3;}
	.st58{fill:url(#SVGID_17_);}
	.st59{fill:url(#SVGID_18_);}
	.st60{fill:url(#SVGID_19_);}
	.st61{fill:url(#SVGID_20_);}
	.st62{fill:url(#SVGID_21_);}
	.st63{fill:url(#SVGID_22_);}
	.st64{fill:url(#SVGID_23_);}
	.st65{fill:url(#SVGID_24_);}
	.st66{fill:url(#SVGID_25_);}
	.st67{fill:url(#SVGID_26_);}
</style>
<rect class="st0" width="1200" height="600"/>
<g>
	<g>
		<path class="st3" d="M476.7,296.3c0-18.7-6.5-25-23-25c-1.8,0-13.4,0-15.6,0l-10.3,10c0,0-1.1,6.4,3,10.4c4.1,4.1,14.9,2,14.9,2
			v-12.4c5.6,0,13.1,1.2,13.1,15c0,0,0,2.2,0,3c-11,0-23.3,3.9-29.3,9.9c-3.3,3.3-4.9,7.4-4.9,11c0,8.3,5.8,14,19,14l16.9-8.3
			c0.8,3.9,3,6.3,7.2,6.3c1.8,0,12.2,0,12.2,0l-3.1-12V296.3z M458.7,317.3c-1.6,1.6-5.9,3-9.2,3c-3.9,0-6.5-2.4-6.5-5.9
			c0-2.2,0.9-4.4,2.7-6.2l13,2C458.7,316.7,458.7,317.3,458.7,317.3z"/>
		<path class="st3" d="M412.5,270c0-6.7,0-19,0-19l-21.9,2L372.3,296l-15.8-33.3v-11.6c0,0-19.6-0.8-30.3-0.8
			c-8.1,0-13.6,1.3-16.7,7.6c-1.6,3.3-3.6,7.2-7.8,11.4c-4.4,4.4-5.6,9.6-5.6,13.3c0,6.8,4.5,11.9,12.3,11.9
			c10.4,0,10.7-13.2,10.7-13.2s-6,0-9.2-3.2c-2.8-2.8-3.1-5.2-3.1-5.8c0,0,2.1-3,8.5-4.9c5.4-1.7,15.5-1.3,19.4-1.3v1
			c-0.7,0.7-2,3.6-2,6.9c0,5.2,0,49.4,0,49.4l-1,9l16.7,0l-2.8-12.1v-35.9h1l22.8,48l10-12l12.2-41.3h1v44.3l-1,9h24l-3-12V270z"/>
		<path class="st3" d="M596.3,301.3c0-5.9,1.1-10.7,2.6-14.3c0,0,0,0,0,0c0-0.1,0.1-0.1,0.1-0.2c0.2-0.4,0.3-0.8,0.5-1.1
			c2.5-5.9,1.9-9.8,0.9-14.2c-1.9,0.8-3.6,1.8-5.9,2.9c-9.3,4.3-17.2,13.2-17.2,28c0,21,10.9,32,30.5,32c7.9,0,17.2-1.4,18.5-1.9
			v-15.9l-12.1,3.8C604.5,320.3,596.3,313.1,596.3,301.3z"/>
		<path class="st6" d="M561.6,237.1c-8.1-2.6-17.5-0.2-22.4,3.8c-6.5,5.4-9.6,12.6-8.2,20.4c1,5.2,5.7,6.6,5.7,4.2
			c0-9.3,5.9-13.6,10.8-13.7c3.4-0.1,3.6,1.5,2.5,2.6c-3,3-0.1,9.9,8.6,9.9c7.4,0,13.1-5.2,13.1-13.4
			C571.7,244.9,568.7,239.4,561.6,237.1z"/>
		<path class="st3" d="M515.9,322.3c-12.1,0-13.6-1.9-13.6-4.5s2.2-4.8,8-4.8c7.9,0,15.5-2.1,20.4-6.5c3.9-3.4,7.1-8.6,7.1-16.8
			c0-16-12.1-19.3-21.6-19.3c-3.4,0-13.7,0-16.6,0c0,0-12.6,8.5-12.6,19.1s4.1,14.8,8.5,19.2c-2.2,2.2-5.9,5.7-5.9,9.7
			c0,4,2.8,6.6,6,9.8c2.1,2.1,2.5,5.1,0.5,7.1c-3.8,3.8-12.2,7.2-12.2,13.2c0,8.9,10.7,14.3,26.8,14.3c17.5,0,32-8.3,32-23.5
			C542.7,325.5,530.4,322.3,515.9,322.3z M503.5,284.3c6.1-6.1,15.4-2.8,15.4,7.8c0,5.5-2.2,7.8-4.5,10.1c-4.8,0-10.9-7-10.9-16.9
			V284.3z M511.3,347.5c-5.7,0-9.1-3.7-9.1-8.3c0-4.1,1.6-6.9,1.6-6.9c7.5,0,16.5,5.1,16.5,10.2
			C520.4,345.7,517.4,347.5,511.3,347.5z"/>
		<path class="st3" d="M567.2,271.3c-6.9,4.1-18,2.5-19.1,2.5l1,6.8v42.7l-1,9h22.1l-3-12V271.3z"/>
	</g>
	<path class="st7" d="M726.4,377.3c3.4,2.2,6.9,4.3,15.5,9.7c16,10.1,22.9,11.9,31.5,11.9c16.4,0,31.3-9.4,31.3-22.5
		c0-15-19.3-19.7-30.1-11.7c-5.6,4.2-9.6,10.2-10.4,12.5c2.8,0.6,11.3-1,16.6-1c9.1,0,9.9,9.5,6.7,12.7c-4.5,0-13.8-1.5-26.1-7.8
		c-13.8-7.1-18.8-8.3-24.9-8.3c-3.2,0-6.4,0.5-8.9,1.6C725.4,375.4,725.3,376.6,726.4,377.3z"/>
	<path class="st8" d="M753.2,399.6c-2.2,4.8-0.1,10,4.1,12.1c3.2,1.6,4.8,2.1,5.4,2.8c0,5.8-4.1,9.4-9.2,9.4
		c-7.1,0-10.5-5.4-10.5-10.4c0-3.3,1.2-6.5,3.7-9C749.3,401.8,752.1,399.6,753.2,399.6z"/>
	<g>
		<path class="st3" d="M719.9,272.3v9.3v35.6c0,0-3,3-8.6,3c-5.7,0-10.6-3.1-10.6-14.1c0-6.3,0-23.9,0-23.9l1.3-10h-19.1
			c0,0-0.2,7.3-0.2,13.7c0,3.5,0,12.3,0,20c0,11.9,3.5,19.6,9.3,24c0,0,0,0,0,0c6.4,4.6,5.3,9.1,3.9,10.5c0,0,0,0,0,0
			c-2.1-0.6-4.5-1-7.3-1c-10.4,0-15.9,6.9-15.9,15c0,11.7,11.8,20.8,25.7,20.8c13.1,0,23.1-3.5,30.6-12.2c6.8-7.8,9-18.5,9-47.1
			c0-0.4,0-31.8,0-31.8l1.1-12H719.9z M720.1,338.4c0,14.1-7.4,24.9-17.8,24.9c-5.1,0-8.4-2.1-8.4-5.6c0-2.3,2.1-3.7,4.2-3.7
			c2.6,0,3.3,1.5,5.6,1.5c2.1,0,2.9-1.5,2.9-3.5c0-1.4-0.6-3.4-2-5.4c0,0-0.4-0.6-0.5-0.7c-5.3-6.7-2.9-11.5,2.8-11.5
			c7.2,0,12.1-3.1,13.1-4C720.1,331.5,720.1,337.1,720.1,338.4z"/>
		<path class="st3" d="M784.4,271.2c-7.7,0-11.6,2.2-14.5,3.1l-4.9-3l-13.5,1l1.1,9v59l-3.2,18.1h10.4c4.4,0,11-2.4,11-18.2v-7.9
			c2.4,0.9,7,2,12,2c16.9,0,27.6-12.9,27.6-34.2C810.3,280.5,799.1,271.2,784.4,271.2z M784.8,320.3c-1.4,0-9.8,0.4-14.1-3.8v-27.9
			c0,0,3.7-2.6,6.3-4.3c7,0,13.4,9.4,13.4,18.5C790.4,313.3,787.3,317.7,784.8,320.3z"/>
		<path class="st3" d="M714,256.1c2-3.1,2.5-11.3,0.4-14.8l-20.2,3.1c-19.6,0-44.9-2.1-61.1-2.1c-8.1,0-13.6,1.3-16.7,7.6
			c-1.6,3.3-1.9,7.6-6.1,11.8c-3.5,3.5-5.1,9.9-5.1,16.1c0,9.8,5.9,14.3,13.3,14.3c10,0,12.2-10.8,12.2-10.8s-5.3-2.8-8.8-6.3
			c-3.4-3.4-6.2-7.5-6.2-10.7c0,0,2-3.3,8.5-4.9c8.8-2.2,19.4-1,26.1-1v1c-1.5,1.5-5,4.9-5,12.2c0,12.4,0,51.8,0,51.8l-1,9.1H668
			l-2.5-12.1c0,0,0-50.8,0-61c4.6,0,24.4,2.5,35.6,2.5C708.9,261.8,712,259.3,714,256.1z"/>
		<path class="st3" d="M872.1,315.5l-16.3,4.8c-10.2,0-19-7-19-19.7c0-12.8,6.3-16.2,6.3-16.2c3.7,0,10.7,2.1,12.4,10.3l-7.2,8.5
			c-1.1,1.1-0.7,2.3,1.6,2.3c6.8,0,24.5,0,24.5,0c0-9.2,0-16.7-4.4-24.4c-4.1-7.3-13.5-10.7-23.1-10.7c-15.3,0-29.2,10.9-29.2,31.8
			c0,21.1,12.5,32.2,35.1,32.2c12.3,0,17.6-1.5,19.2-2V315.5z"/>
	</g>
</g>
</svg>
