<?xml version="1.0" encoding="utf-8"?>
<!-- Generator: Adobe Illustrator 23.0.6, SVG Export Plug-In . SVG Version: 6.00 Build 0)  -->
<svg version="1.1" id="Layer_1" xmlns="http://www.w3.org/2000/svg" xmlns:xlink="http://www.w3.org/1999/xlink" x="0px" y="0px"
	 viewBox="0 0 800 800" style="enable-background:new 0 0 800 800;" xml:space="preserve">
<style type="text/css">
	.st0{fill:#FFFFFF;}
	.st1{fill:#111000;}
	.st2{fill:url(#SVGID_1_);}
	.st3{fill:#332211;}
	.st4{fill:url(#SVGID_2_);}
	.st5{fill:#EEEDDD;}
	.st6{fill:#EE0033;}
	.st7{fill:#00CC77;}
	.st8{fill:#4488FF;}
	.st9{fill:#00ADEE;}
	.st10{fill:#0067A0;}
	.st11{opacity:0.8;}
	.st12{fill:#231F20;}
	.st13{opacity:0.6;}
	.st14{fill:#40B8E9;}
	.st15{fill:#002834;}
	.st16{fill:none;stroke:#231F20;stroke-width:6;stroke-miterlimit:10;}
	.st17{fill:#FFCC66;}
	.st18{fill:url(#SVGID_3_);}
	.st19{fill:url(#SVGID_4_);}
	.st20{fill:#03233F;}
	.st21{fill:url(#SVGID_5_);}
	.st22{fill:url(#SVGID_6_);}
	.st23{fill:url(#SVGID_7_);}
	.st24{fill:url(#SVGID_8_);}
	.st25{fill:url(#SVGID_9_);}
	.st26{fill:#EFEBE1;}
	.st27{fill:url(#SVGID_10_);}
	.st28{fill:#062332;}
	.st29{fill:url(#SVGID_11_);}
	.st30{fill:url(#SVGID_12_);}
	.st31{fill:url(#SVGID_13_);}
	.st32{fill:#EFB3E1;}
	.st33{fill:#1C3664;}
	.st34{fill:#F37B4F;}
	.st35{fill:url(#SVGID_14_);}
	.st36{fill:url(#SVGID_15_);}
	.st37{fill:url(#SVGID_16_);}
	.st38{fill:#FFEEDD;}
	.st39{fill:#FF9900;}
	.st40{fill:#FFEECC;}
	.st41{fill:#EEDDCC;}
	.st42{fill:#BBAA99;}
	.st43{fill:#221100;}
	.st44{fill:#DDDCCC;}
	.st45{fill:#AAA999;}
	.st46{fill:#333222;}
	.st47{fill:#DDDD88;}
	.st48{fill:#EEEECC;}
	.st49{fill:#00DD88;}
	.st50{fill:#CCEECC;}
	.st51{fill:#00BBAA;}
	.st52{fill:#00AADD;}
	.st53{fill:#66AAFF;}
	.st54{fill:#CCEEEE;}
	.st55{fill:#CCEEFF;}
	.st56{fill:#BEDDFF;}
	.st57{fill:none;stroke:#BBAA99;stroke-linecap:round;stroke-linejoin:round;stroke-dasharray:2,3;}
	.st58{fill:url(#SVGID_17_);}
	.st59{fill:url(#SVGID_18_);}
	.st60{fill:url(#SVGID_19_);}
	.st61{fill:url(#SVGID_20_);}
	.st62{fill:url(#SVGID_21_);}
	.st63{fill:url(#SVGID_22_);}
	.st64{fill:url(#SVGID_23_);}
	.st65{fill:url(#SVGID_24_);}
	.st66{fill:url(#SVGID_25_);}
	.st67{fill:url(#SVGID_26_);}
</style>
<rect y="0" class="st0" width="800" height="800"/>
<g>
	<linearGradient id="SVGID_1_" gradientUnits="userSpaceOnUse" x1="209.0812" y1="590.9188" x2="590.9188" y2="209.0812">
		<stop  offset="0" style="stop-color:#4488FF"/>
		<stop  offset="0.3685" style="stop-color:#00CC77"/>
		<stop  offset="0.6976" style="stop-color:#FF9900"/>
		<stop  offset="1" style="stop-color:#EE0033"/>
	</linearGradient>
	<path class="st2" d="M400,130c-149.1,0-270,120.9-270,270s120.9,270,270,270s270-120.9,270-270S549.1,130,400,130z M400,655
		c-140.8,0-255-114.2-255-255s114.2-255,255-255s255,114.2,255,255S540.8,655,400,655z"/>
	<g>
		<g>
			<path class="st3" d="M407.5,283.7c0-14-4.9-18.7-17.2-18.7c-1.3,0-10,0-11.7,0l-7.8,7.5c0,0-0.8,4.8,2.2,7.8
				c3,3,11.2,1.5,11.2,1.5v-9.3c4.2,0,9.8,0.9,9.8,11.2c0,0,0,1.6,0,2.2c-8.2,0-17.5,2.9-22,7.5c-2.5,2.5-3.7,5.6-3.7,8.3
				c0,6.2,4.3,10.5,14.3,10.5l12.7-6.2c0.6,2.9,2.2,4.7,5.4,4.7c1.4,0,9.1,0,9.1,0l-2.3-9V283.7z M394,299.4
				c-1.2,1.2-4.4,2.2-6.9,2.2c-2.9,0-4.8-1.8-4.8-4.4c0-1.6,0.7-3.3,2-4.6l9.7,1.5C394,299,394,299.4,394,299.4z M436.9,303.1
				c-9,0-10.2-1.4-10.2-3.4s1.7-3.6,6-3.6c5.9,0,11.6-1.5,15.3-4.9c3-2.6,5.4-6.5,5.4-12.6c0-12-9.1-14.5-16.2-14.5
				c-2.5,0-10.3,0-12.5,0c0,0-9.4,6.4-9.4,14.3c0,7.9,3.1,11.1,6.4,14.4c-1.6,1.6-4.4,4.2-4.4,7.2c0,3,2.1,4.9,4.5,7.4
				c1.6,1.6,1.9,3.8,0.4,5.3c-2.8,2.8-9.1,5.4-9.1,9.9c0,6.7,8,10.7,20.1,10.7c13.1,0,24-6.2,24-17.6
				C457,305.5,447.8,303.1,436.9,303.1z M427.6,274.7c4.6-4.6,11.5-2.1,11.5,5.9c0,4.1-1.6,5.8-3.4,7.6c-3.6,0-8.1-5.2-8.1-12.7
				V274.7z M433.5,322c-4.3,0-6.8-2.8-6.8-6.2c0-3.1,1.2-5.2,1.2-5.2c5.6,0,12.4,3.8,12.4,7.7C440.3,320.7,438,322,433.5,322z
				 M475.3,264.9c-5.2,3-13.5,1.9-14.3,1.9l0.8,5.1v32l-0.8,6.8h16.6l-2.2-9V264.9z M497.1,287.4c0-7.5,2.3-12.6,4.6-15l12.8,7.3
				l7.6-9.3c-1.1-1.5-6.6-7-13.2-7c-6.9,0-8.8,1.7-13.2,3.8c-7,3.2-12.9,9.9-12.9,21c0,15.8,8.2,24,22.8,24c5.9,0,12.9-1,13.9-1.4
				v-11.9l-9,2.9C503.3,301.6,497.1,296.3,497.1,287.4z M471.1,239.2c-6.1-1.9-13.1-0.2-16.8,2.9c-4.9,4-7.2,9.4-6.1,15.3
				c0.7,3.9,4.3,4.9,4.3,3.1c0-7,4.4-10.2,8.1-10.3c2.5-0.1,2.7,1.1,1.8,2c-2.3,2.3-0.1,7.4,6.4,7.4c5.6,0,9.8-3.9,9.8-10.1
				C478.8,245.1,476.5,240.9,471.1,239.2z M359.3,263.9c0-5,0-14.3,0-14.3l-16.4,1.5l-13.7,32.3l-11.9-25v-8.7
				c0,0-14.7-0.6-22.8-0.6c-6.1,0-10.2,1-12.6,5.7c-1.2,2.4-2.7,5.4-5.9,8.6c-3.3,3.3-4.2,7.2-4.2,10c0,5.1,3.4,8.9,9.2,8.9
				c7.8,0,8-9.9,8-9.9s-4.5,0-6.9-2.4c-2.1-2.1-2.3-3.9-2.3-4.4c0,0,1.6-2.2,6.4-3.7c4-1.2,11.6-0.9,14.6-0.9v0.8
				c-0.5,0.5-1.5,2.7-1.5,5.2c0,3.9,0,37,0,37l-0.8,6.8l12.5,0l-2.1-9.1v-27h0.8l17.1,36l7.5-9l9.2-31h0.8v33.2l-0.8,6.8h18l-2.3-9
				V263.9z"/>
		</g>
	</g>
	<path class="st3" d="M368.5,542.6c5.1,3.3,10.3,6.4,23.2,14.5c24,15.1,34.4,17.8,47.2,17.8c24.6,0,47-14.2,47-33.8
		c0-22.5-28.9-29.5-45.2-17.5c-8.4,6.2-14.4,15.2-15.6,18.7c4.1,0.8,16.9-1.5,24.9-1.5c13.7,0,14.9,14.3,10.1,19
		c-6.7,0-20.7-2.2-39.2-11.7c-20.8-10.7-28.2-12.4-37.4-12.4c-4.8,0-9.7,0.7-13.4,2.4C367.1,539.6,366.9,541.5,368.5,542.6z"/>
	<path class="st3" d="M408.7,576c-3.2,7.1-0.1,15.1,6.1,18.2c4.8,2.4,7.2,3.2,8.1,4.2c0,8.6-6.2,14.1-13.8,14.1
		c-10.7,0-15.8-8-15.8-15.6c0-5,1.8-9.8,5.6-13.5C402.9,579.4,407.1,576,408.7,576z"/>
	<g>
		<path class="st3" d="M358.7,385.1v14v53.4c0,0-4.5,4.6-12.9,4.6c-8.5,0-15.9-4.7-15.9-21.2c0-9.5,0-35.8,0-35.8l1.9-15h-28.6
			c0,0-0.3,11-0.3,20.5c0,5.3,0,18.4,0,30c0,17.9,5.2,29.5,13.9,36c0,0,0,0,0,0c9.6,6.9,8,13.7,5.9,15.8c0,0,0,0,0,0
			c-3.1-0.9-6.8-1.5-11-1.5c-15.6,0-23.8,10.3-23.8,22.5c0,17.5,17.7,31.2,38.5,31.2c19.7,0,34.7-5.3,45.9-18.3
			c10.1-11.6,13.5-27.8,13.5-70.6c0-0.7,0-47.7,0-47.7l1.7-18H358.7z M359,484.2c0,21.2-11.1,37.3-26.7,37.3
			c-7.6,0-12.6-3.1-12.6-8.4c0-3.4,3.1-5.6,6.4-5.6c3.9,0,5,2.2,8.4,2.2c3.2,0,4.4-2.2,4.4-5.2c0-2.1-0.9-5.1-3-8.1
			c0,0-0.7-0.9-0.8-1.1c-8-10.1-4.3-17.3,4.2-17.3c10.8,0,18.2-4.6,19.6-6C359,473.8,359,482.3,359,484.2z"/>
		<path class="st3" d="M455.5,383.4c-11.6,0-17.4,3.3-21.8,4.7l-7.4-4.5l-20.2,1.5l1.6,13.5v88.6l-4.8,27.1h15.5
			c6.6,0,16.5-3.6,16.5-27.3v-11.8c3.6,1.3,10.5,3,18,3c25.4,0,41.4-19.3,41.4-51.3C494.4,397.4,477.5,383.4,455.5,383.4z
			 M456.1,457.1c-2.1,0-14.7,0.6-21.1-5.7v-41.8c0,0,5.5-3.9,9.5-6.4c10.5,0,20.1,14.1,20.1,27.8
			C464.6,446.5,459.9,453.2,456.1,457.1z"/>
		<path class="st3" d="M590,360.8c3-4.6,3.8-17,0.7-22.1l-30.3,4.6c-16.8,0-96.1,2.2-163.2,1.4c-64.1-0.8-134.9-4.5-168.5-4.5
			c-12.1,0-20.4,2-25.1,11.3c-2.5,4.9-2.9,11.3-9.2,17.6c-5.2,5.2-7.7,14.8-7.7,24.2c0,14.6,8.9,21.5,20,21.5
			c15,0,18.2-16.2,18.2-16.2s-7.9-4.3-13.1-9.5c-5.1-5.1-9.3-11.2-9.3-16.1c0,0,3-4.9,12.7-7.4c13.2-3.4,29.1-1.5,39.1-1.5v1.5
			c-2.3,2.3-7.5,7.4-7.5,18.2c0,18.6,0,77.7,0,77.7l-1.5,13.6h35.6l-3.8-18.1c0,0,0-76.2,0-91.4c37.3,0,240.3,3.7,293.4,3.7
			C583.1,369.3,586.9,365.5,590,360.8z"/>
		<path class="st3" d="M587,449.8l-24.5,7.2c-15.3,0-28.5-10.5-28.5-29.6c0-19.2,9.5-24.3,9.5-24.3c5.6,0,16,3.2,18.6,15.5
			l-10.7,12.8c-1.6,1.6-1,3.5,2.5,3.5c10.2,0,36.7,0,36.7,0c0-13.8-0.1-25-6.5-36.6c-6.1-10.9-20.2-16.1-34.7-16.1
			c-22.9,0-43.7,16.4-43.7,47.7c0,31.7,18.7,48.2,52.7,48.2c18.5,0,26.3-2.2,28.8-3V449.8z"/>
	</g>
</g>
</svg>
